<?xml version="1.0" encoding="UTF-8"?>
<svg version="1.1" xmlns="http://www.w3.org/2000/svg" width="1254" height="1254">
<path d="M0 0 C1.37834166 0.55738777 2.75719802 1.11350557 4.13671875 1.66796875 C15.90222055 6.50167147 26.92494488 12.78008742 38 19 C38.71559082 19.39928711 39.43118164 19.79857422 40.16845703 20.20996094 C53.0130753 27.38247256 65.12783632 35.33515326 77 44 C78.02351563 44.74378906 79.04703125 45.48757813 80.1015625 46.25390625 C87.68597998 51.84716399 94.88562835 57.82833245 102 64 C102.62398682 64.54003662 103.24797363 65.08007324 103.89086914 65.63647461 C121.05747472 80.5649581 136.67123084 96.49148639 150 115 C150.99773437 116.37865234 150.99773437 116.37865234 152.015625 117.78515625 C202.47673491 188.97766621 210.97867473 286.94673006 197.37670898 371.40991211 C191.11311792 406.66609727 178.25375397 439.71372043 161 471 C160.67708984 471.59441895 160.35417969 472.18883789 160.02148438 472.80126953 C151.69676268 488.10203906 141.83497249 502.38207224 131 516 C130.3709375 516.82242188 129.741875 517.64484375 129.09375 518.4921875 C120.096146 530.12044691 109.5865967 540.50575483 99.24737549 550.92785645 C97.8554137 552.33171939 96.46743632 553.73952949 95.07958984 555.14746094 C89.03120883 561.20354129 82.68062517 566.65791043 76 572 C74.92213607 572.91193532 73.84922336 573.82981581 72.78515625 574.7578125 C54.02000747 591.07299207 33.52216618 604.87388192 12.2421875 617.65185547 C10.08405834 618.94945882 7.93258312 620.25757788 5.78125 621.56640625 C-4.09311143 627.52465276 -14.24168844 632.76332803 -24.6015625 637.82275391 C-26.887488 638.94477475 -29.1642123 640.0830922 -31.4375 641.23046875 C-32.48538696 641.75906494 -32.48538696 641.75906494 -33.55444336 642.29833984 C-34.21710205 642.6330127 -34.87976074 642.96768555 -35.5625 643.3125 C-41.63620783 646.37929005 -47.79890838 649.20070499 -54 652 C-56.33304725 653.05989903 -58.66542724 654.12125906 -60.99781799 655.18260193 C-64.57429124 656.80925008 -68.15233907 658.43241927 -71.73046875 660.05541992 C-73.56292553 660.88716534 -75.39496378 661.71983353 -77.2265625 662.5534668 C-87.51680196 667.23615592 -97.83334267 671.81294292 -108.27354431 676.15179443 C-113.79644943 678.45894286 -119.22128794 680.92842983 -124.62269592 683.50567627 C-128.73159932 685.45215378 -132.89082059 687.17611003 -137.12109375 688.83984375 C-155.96768874 696.62352841 -168.7883987 707.29223676 -182.57983398 722.29272461 C-183.22617294 722.98894424 -183.8725119 723.68516388 -184.53843689 724.40248108 C-185.74918295 725.71654841 -186.94412754 727.04542361 -188.11964417 728.39109802 C-190.88087611 731.41461451 -192.59556892 732.85972473 -196.54125977 734.22827148 C-201.05601487 733.93030466 -202.98475171 732.07803902 -205.93359375 728.91796875 C-206.4563942 728.38859207 -206.97919464 727.85921539 -207.51783752 727.313797 C-208.61532617 726.1955174 -209.70324875 725.06777856 -210.78198242 723.93139648 C-212.43874529 722.18618823 -214.12108743 720.46938029 -215.81054688 718.75585938 C-216.87397153 717.66559719 -217.93587597 716.57384969 -218.99609375 715.48046875 C-219.49910507 714.96268356 -220.00211639 714.44489838 -220.52037048 713.91142273 C-224 710.23672244 -224 710.23672244 -224 708 C-224.66 708 -225.32 708 -226 708 C-227.14454977 706.85545023 -228.28593132 705.70761113 -229.4140625 704.546875 C-235.10743711 698.99373129 -241.62020785 694.97254376 -248.53344727 691.13500977 C-252.95403866 688.65796973 -257.19502571 685.98931405 -261.375 683.125 C-262.45523438 682.38507812 -263.53546875 681.64515625 -264.6484375 680.8828125 C-265.42445313 680.26148438 -266.20046875 679.64015625 -267 679 C-267 678.34 -267 677.68 -267 677 C-267.58394531 676.73316406 -268.16789063 676.46632813 -268.76953125 676.19140625 C-272.69222154 674.09609883 -275.74638898 670.99887991 -279 668 C-280.05574219 667.06027344 -280.05574219 667.06027344 -281.1328125 666.1015625 C-300.81468684 647.68948651 -315.00724619 617.12665136 -316.16113281 590.24633789 C-316.18100036 588.90518479 -316.19473315 587.56393025 -316.203125 586.22265625 C-316.20882507 585.49364609 -316.21452515 584.76463593 -316.22039795 584.01353455 C-316.22979419 582.47477644 -316.23636038 580.93599871 -316.24023438 579.3972168 C-316.24984434 577.0997155 -316.28087801 574.80314783 -316.3125 572.50585938 C-316.41325342 558.66157616 -314.3722725 545.70410382 -309.875 532.5625 C-309.5756958 531.68271484 -309.2763916 530.80292969 -308.96801758 529.89648438 C-297.82456435 498.37504914 -274.35714576 474.09506168 -244.72265625 459.1171875 C-219.16980368 447.04557366 -187.69982635 446.64808287 -160.9375 454.6875 C-137.48629984 463.19775818 -113.03352731 479.2967206 -100 501 C-99.61956543 501.61367432 -99.23913086 502.22734863 -98.84716797 502.85961914 C-93.45177306 511.59577342 -88.44056265 520.28702699 -85 530 C-84.64421875 530.98742187 -84.2884375 531.97484375 -83.921875 532.9921875 C-76.51092063 555.16974499 -74.53498227 581.37243795 -81 604 C-64.96750119 597.71917754 -49.40784438 590.68332671 -34 583 C-32.99727051 582.50064941 -31.99454102 582.00129883 -30.96142578 581.48681641 C-12.75837917 572.36001522 4.16172578 561.81654329 20.86035156 550.18774414 C21.60639648 549.66946045 22.35244141 549.15117676 23.12109375 548.6171875 C23.7752124 548.15940918 24.42933105 547.70163086 25.10327148 547.22998047 C27.01116579 545.99275927 28.94819913 544.97645086 31 544 C31 543.34 31 542.68 31 542 C32.36328125 540.80859375 32.36328125 540.80859375 34.3125 539.4375 C39.72570298 535.51196805 44.85637225 531.26974762 50 527 C50.71027344 526.41605469 51.42054688 525.83210937 52.15234375 525.23046875 C55.21775336 522.67056009 57.63318478 520.23879978 60 517 C60.66 517 61.32 517 62 517 C62.24363281 516.42765625 62.48726562 515.8553125 62.73828125 515.265625 C64.22517298 512.59566462 65.98083908 510.86170993 68.1875 508.75 C81.26501429 495.92118646 92.74577211 481.16283469 103 466 C103.68545898 464.99888184 103.68545898 464.99888184 104.38476562 463.97753906 C116.91525062 445.5209316 126.90508682 425.15515208 134 404 C133.41734375 404.2266333 132.8346875 404.4532666 132.234375 404.68676758 C129.49483693 405.74290043 126.74762912 406.77760803 124 407.8125 C123.08476563 408.16892578 122.16953125 408.52535156 121.2265625 408.89257812 C108.06790207 413.80454384 95.10111683 415.5150925 81.14550781 415.39111328 C79.00000512 415.37500004 76.85638477 415.39109647 74.7109375 415.41015625 C43.22796483 415.45861713 14.68557552 402.60971555 -7.54248047 380.50097656 C-17.49103498 370.25579849 -25.72499279 358.27722902 -31 345 C-31.42023438 343.94296875 -31.84046875 342.8859375 -32.2734375 341.796875 C-36.79177239 329.80274965 -40.58057687 316.87446666 -41 304 C-41.02046387 303.37577148 -41.04092773 302.75154297 -41.06201172 302.10839844 C-41.57907109 283.58827188 -39.19215298 267.47667781 -33 250 C-32.68160156 249.05640625 -32.36320312 248.1128125 -32.03515625 247.140625 C-21.17273211 217.30650154 3.03422777 193.96726278 31 180 C58.39826184 168.41674387 88.02511261 166.24995123 116.34375 175.78125 C119.87744925 176.95914975 123.41277122 178.00149302 127 179 C119.5661 163.38465698 111.27111513 149.18354261 100 136 C98.57753563 134.21293285 97.1606861 132.42137931 95.75 130.625 C93.00362603 127.18798582 90.19225352 124.03653383 87 121 C85.56179607 119.54236088 84.12437805 118.08394614 82.6875 116.625 C79.27984017 113.21734017 75.78950318 109.98317947 72.125 106.85546875 C70.61571772 105.53762117 69.13941769 104.18157459 67.6875 102.80078125 C41.95652087 78.44264399 7.93994079 59.42848123 -24.92578125 46.66015625 C-25.90933594 46.27561279 -26.89289063 45.89106934 -27.90625 45.49487305 C-29.77733599 44.7738825 -31.65592097 44.07191444 -33.54296875 43.39379883 C-41.29054398 40.42956608 -46.73010116 35.88079479 -50.9375 28.6875 C-53.62968571 19.34403195 -53.70517621 11.71881355 -49 3 C-35.99567573 -15.11196584 -16.83920309 -7.08488579 0 0 Z M57 229 C56.25234375 229.25523437 55.5046875 229.51046875 54.734375 229.7734375 C49.72491581 231.73757797 45.36580687 234.61214735 40.9375 237.625 C40.35234619 238.02154785 39.76719238 238.4180957 39.16430664 238.82666016 C37.7362353 239.82982436 36.36236199 240.90926814 35 242 C35 242.66 35 243.32 35 244 C34.43152344 244.2165625 33.86304688 244.433125 33.27734375 244.65625 C23.52084719 250.41308502 17.55256882 264.96631346 14.6875 275.375 C9.97331152 294.4696363 12.61495092 314.44983727 22.59765625 331.3828125 C28.4684941 340.61800597 36.38118724 348.72516719 46 354 C46.60714844 354.36222656 47.21429687 354.72445312 47.83984375 355.09765625 C61.76112481 362.8382417 79.63312335 364.70338629 95.0625 360.8125 C96.72230601 360.2478508 98.36881492 359.64266628 100 359 C100.9796875 358.64808594 101.959375 358.29617188 102.96875 357.93359375 C119.49284438 351.61187582 131.77302002 339.75657142 139.6875 324 C146.91704818 307.12307461 148.82582314 287.23864889 142.18554688 269.86962891 C138.57765175 261.51057253 134.13498503 253.76818302 128 247 C127.45859375 246.39027344 126.9171875 245.78054688 126.359375 245.15234375 C115.21776175 233.30787172 100.55727359 226.42510026 84.3515625 225.78125 C74.86677628 225.54473736 66.03356595 225.77372645 57 229 Z M-246.5 526.875 C-254.40032137 536.92125641 -259.73668968 548.41521416 -262 561 C-262.226875 562.11375 -262.45375 563.2275 -262.6875 564.375 C-264.54372835 585.90724883 -259.50495851 604.77412951 -245.90234375 621.59375 C-236.28015448 632.86206336 -223.00830361 641.33444435 -208 643 C-187.40975395 644.22197306 -170.73778703 641.60347508 -154.6875 627.5625 C-153.10963473 626.05761414 -151.54584884 624.53775539 -150 623 C-149.37480469 622.40960937 -148.74960937 621.81921875 -148.10546875 621.2109375 C-134.32753584 607.09088887 -131.63922341 588.17957032 -131.86328125 569.38671875 C-132.27354637 550.28149256 -140.87315158 533.7114747 -154.5 520.3125 C-167.20351778 509.50966122 -183.74240395 503.99333193 -200.4375 504.7265625 C-218.17745056 506.61954503 -234.53715692 513.29282114 -246.5 526.875 Z " fill="#000000" transform="translate(823,399)"/>
<path d="M0 0 C5.76454783 5.13215018 5.76454783 5.13215018 8 8 C8 8.66 8 9.32 8 10 C8.99 10.33 9.98 10.66 11 11 C12.6709543 12.86090292 14.18649601 14.69670075 15.6875 16.6875 C16.34951416 17.56317627 16.34951416 17.56317627 17.02490234 18.45654297 C28.18854391 33.53329654 36.78748067 51.44951242 40 70 C40.20238281 70.94875 40.40476562 71.8975 40.61328125 72.875 C46.60018564 104.15352088 38.82834725 136.32544473 21.81005859 162.85498047 C16.86546174 170.09535851 11.0000602 176.62712052 5 183 C4.47019531 183.57105469 3.94039062 184.14210938 3.39453125 184.73046875 C2.30940797 185.86650691 1.16245391 186.94322371 0 188 C-0.66 188 -1.32 188 -2 188 C-2 188.66 -2 189.32 -2 190 C-5.14511077 192.58567675 -8.6143136 194.74287573 -12 197 C-12.80695313 197.57234375 -13.61390625 198.1446875 -14.4453125 198.734375 C-38.82736393 215.39671736 -68.87496952 219.64850455 -97.6875 214.875 C-117.60934657 210.28090786 -135.74688638 201.72529764 -151 188 C-151.77472656 187.35546875 -152.54945313 186.7109375 -153.34765625 186.046875 C-159.36362593 180.96993318 -164.21212976 175.23042634 -169 169 C-169.58394531 168.278125 -170.16789062 167.55625 -170.76953125 166.8125 C-175.08437174 161.1536928 -178.16228623 154.94381243 -181.25 148.5625 C-181.67466553 147.69254395 -182.09933105 146.82258789 -182.53686523 145.92626953 C-185.7504245 139.1007284 -189 131.6510913 -189 124 C-211.73841416 125.51288356 -233.46155052 129.51170352 -255 137 C-256.2271875 137.41121094 -257.454375 137.82242188 -258.71875 138.24609375 C-290.76175934 149.25185709 -318.54476771 167.59658005 -344.125 189.5546875 C-345.97788299 191.13064504 -347.85806727 192.67531952 -349.76953125 194.1796875 C-352.07526254 195.91251568 -352.07526254 195.91251568 -353.6875 198.25 C-354.120625 198.8275 -354.55375 199.405 -355 200 C-355.66 200 -356.32 200 -357 200 C-357.226875 200.556875 -357.45375 201.11375 -357.6875 201.6875 C-359.75557176 205.33124549 -362.85060509 207.94010716 -365.90625 210.7578125 C-381.31068015 225.43667167 -391.83625246 244.01446985 -401 263 C-400.40687012 262.79842285 -399.81374023 262.5968457 -399.20263672 262.38916016 C-364.83956351 250.81065997 -333.13662916 251.40449748 -300.13671875 267.38671875 C-290.08663002 272.72432569 -279.84575525 279.66965398 -272 288 C-272 288.66 -272 289.32 -272 290 C-271.01 290.33 -270.02 290.66 -269 291 C-267.13178238 293.10871031 -265.39791359 295.20692847 -263.6875 297.4375 C-263.19403076 298.0763916 -262.70056152 298.7152832 -262.19213867 299.37353516 C-258.37705408 304.37772885 -254.96902633 309.44402044 -252 315 C-251.54246338 315.83772949 -251.54246338 315.83772949 -251.07568359 316.69238281 C-235.23456372 345.90306801 -231.03203905 379.32782098 -240.25390625 411.4765625 C-246.94442649 433.48818643 -258.86734624 455.44615948 -277 470 C-278.04174707 470.86448645 -279.08340681 471.72907814 -280.125 472.59375 C-292.66246263 482.86562106 -305.67704388 489.82769414 -321 495 C-321.97453125 495.33 -322.9490625 495.66 -323.953125 496 C-333.4914887 499.04291357 -342.87989289 499.21340144 -352.82373047 499.24023438 C-354.96753048 499.2498543 -357.11033363 499.28091155 -359.25390625 499.3125 C-372.2134964 499.41336118 -384.83160323 497.882745 -396.875 492.8125 C-401.30261165 490.80166087 -401.30261165 490.80166087 -406 490 C-395.29185278 518.91199749 -380.4260226 545.35307292 -360.62744141 569.04785156 C-359.13960084 570.832546 -357.66800054 572.62931311 -356.19921875 574.4296875 C-344.99584771 587.99365503 -332.36237359 600.56951407 -319 612 C-317.99001778 612.88833743 -316.98084054 613.77759135 -315.97265625 614.66796875 C-307.40490113 622.08568963 -298.37761519 628.64544571 -289 635 C-288.31953613 635.4640625 -287.63907227 635.928125 -286.93798828 636.40625 C-272.27510508 646.34862397 -256.82022653 654.99342431 -240.6875 662.3125 C-231.64010694 666.46955229 -223.97359973 670.66418599 -219.81640625 680.1953125 C-217.70286462 687.45618756 -217.93626986 694.53071248 -221.0625 701.4375 C-224.9413978 708.17626313 -229.51559601 711.90808584 -237 714 C-248.01427553 715.69565822 -256.43686751 711.8537236 -266 707 C-267.50699463 706.25145752 -267.50699463 706.25145752 -269.04443359 705.48779297 C-283.89692544 698.09549685 -298.18429171 690.1826039 -312 681 C-313.10085938 680.28328125 -314.20171875 679.5665625 -315.3359375 678.828125 C-328.15331399 670.41777297 -340.31596439 661.38735606 -352.09326172 651.58203125 C-353.82422554 650.14584104 -355.56817501 648.72755881 -357.31640625 647.3125 C-365.24493125 640.80247412 -372.54456471 633.66556451 -379.8125 626.4375 C-380.30082306 625.95444397 -380.78914612 625.47138794 -381.29226685 624.97369385 C-387.25919025 619.05662142 -392.85511862 612.95933051 -398.08886719 606.37646484 C-399.80632656 604.24083 -401.58347443 602.20439667 -403.4375 600.1875 C-408.0167994 595.01321042 -411.88754108 589.30953234 -415.83935547 583.65283203 C-416.84034385 582.22736057 -417.85807838 580.81367542 -418.87890625 579.40234375 C-423.55705054 572.90070007 -427.67072388 566.09220349 -431.71582031 559.18579102 C-432.67603709 557.55141444 -433.6456944 555.92257774 -434.62011719 554.29663086 C-461.93056601 508.3260505 -474.41303894 455.15760142 -475 402 C-475.01514648 400.74574219 -475.03029297 399.49148438 -475.04589844 398.19921875 C-475.14046672 388.79774778 -475.11179138 379.40117906 -475 370 C-474.98743164 368.8332373 -474.97486328 367.66647461 -474.96191406 366.46435547 C-474.19521732 312.3965885 -461.7464692 260.17371317 -433 214 C-432.35546875 212.95585938 -431.7109375 211.91171875 -431.046875 210.8359375 C-425.73117575 202.54970043 -419.49002222 195.04251046 -413.17993164 187.50537109 C-411.91265965 185.99181285 -411.91265965 185.99181285 -411 184 C-410.34 184 -409.68 184 -409 184 C-408.76982178 183.44530029 -408.53964355 182.89060059 -408.30249023 182.3190918 C-406.64000156 179.35902059 -404.55832069 177.29882183 -402.16015625 174.89453125 C-401.67856552 174.41102707 -401.19697479 173.92752289 -400.70079041 173.42936707 C-399.67855488 172.40577272 -398.65379795 171.38469106 -397.62670898 170.3659668 C-396.09195579 168.84175351 -394.56795721 167.30739532 -393.04492188 165.77148438 C-387.4087227 160.12814108 -381.64279627 154.88207417 -375.38500977 149.92578125 C-373.120009 148.09690153 -370.99217196 146.18411344 -368.875 144.1875 C-362.11169927 138.11260667 -354.48188973 133.13463021 -347 128 C-346.37319336 127.56397461 -345.74638672 127.12794922 -345.10058594 126.67871094 C-299.34220645 94.85436762 -246.68615834 74.76185499 -191 71 C-190.68289063 69.72769531 -190.36578125 68.45539063 -190.0390625 67.14453125 C-183.74964532 43.00808233 -173.21840688 23.06950684 -156 5 C-155.48695313 4.4121875 -154.97390625 3.824375 -154.4453125 3.21875 C-138.53519293 -14.25765077 -113.68959364 -24.07196101 -91 -28 C-90.26007813 -28.1340625 -89.52015625 -28.268125 -88.7578125 -28.40625 C-56.17329503 -33.44076772 -24.60172042 -20.60062453 0 0 Z M-106 33 C-107.29550781 33.64775391 -107.29550781 33.64775391 -108.6171875 34.30859375 C-123.1762148 42.313791 -132.97483283 56.04683346 -138.03515625 71.63671875 C-143.51181461 90.72741853 -142.19767175 111.20346326 -133 129 C-123.9408881 144.83322458 -110.8486889 156.7616663 -93.1875 162.0625 C-74.86326443 165.73234009 -56.9773003 162.56780193 -41 153 C-26.27907419 142.8274628 -15.3584982 127.61536734 -12 109.875 C-8.56059774 88.72382857 -12.2036094 69.58533247 -24.1015625 51.87109375 C-31.60304606 42.06460888 -41.60696979 34.7054141 -53 30 C-53.74121094 29.69320312 -54.48242188 29.38640625 -55.24609375 29.0703125 C-71.61594047 23.27323356 -90.72090706 25.36045353 -106 33 Z M-403.1875 331.3125 C-417.77984336 348.58206764 -421.053695 366.93512501 -420 389 C-418.0774831 406.47567866 -406.78150904 422.38085827 -393.96484375 433.703125 C-382.2496822 442.77890233 -368.72058143 446.17664632 -354.1875 446.1875 C-353.33607422 446.19974609 -352.48464844 446.21199219 -351.60742188 446.22460938 C-335.46674084 446.26148831 -320.98884568 439.23323918 -309.23046875 428.328125 C-295.99244938 414.51050758 -288.18554979 397.9601706 -288.4375 378.75 C-288.44773193 377.56849365 -288.45796387 376.3869873 -288.46850586 375.16967773 C-288.93417787 355.91090793 -296.40966728 340.63785137 -310 327 C-310.61359375 326.36320312 -311.2271875 325.72640625 -311.859375 325.0703125 C-324.3691634 313.04166981 -340.90405502 309.4999254 -357.68798828 309.64819336 C-375.88554501 310.14858288 -390.85994676 318.06215487 -403.1875 331.3125 Z " fill="#010000" transform="translate(703,315)"/>
<path d="M0 0 C6.55422046 4.660779 10.5656864 11.05794712 14.734375 17.80859375 C23.81689415 31.75674816 34.60002159 44.73694866 45.8125 57 C47.35587447 58.70679059 48.89755626 60.4151134 50.4375 62.125 C51.56478516 63.37410156 51.56478516 63.37410156 52.71484375 64.6484375 C54.50794405 66.65857974 56.25692053 68.69674849 58 70.75 C66.37667977 80.35969572 75.67904327 89.47921142 85.625 97.453125 C87.04953744 98.60066905 88.43584729 99.79542888 89.8125 101 C89.8125 101.66 89.8125 102.32 89.8125 103 C90.36550781 103.23332031 90.91851563 103.46664062 91.48828125 103.70703125 C94.41712669 105.33635535 96.56117688 107.3894459 99 109.6875 C103.04745792 113.4478323 107.1924116 116.96884577 111.59375 120.30859375 C113.890679 122.05959772 116.13253878 123.86736898 118.375 125.6875 C148.8287892 150.09774654 181.79423041 171.28008901 214.8125 192 C234.29664137 204.23584051 234.29664137 204.23584051 242.8828125 210.02734375 C244.99497625 211.44953401 247.11295248 212.85781226 249.2421875 214.25390625 C273.80146857 230.39539998 296.97229227 248.3901977 319.18212891 267.61523438 C320.29518958 268.56061925 321.42336571 269.48842009 322.56396484 270.40039062 C324.01303378 271.56032509 325.41731484 272.77578307 326.8125 274 C326.8125 274.66 326.8125 275.32 326.8125 276 C327.66183105 276.36254883 327.66183105 276.36254883 328.52832031 276.73242188 C331.2647274 278.25095817 333.14319338 280.07151881 335.359375 282.28125 C336.20371094 283.12300781 337.04804687 283.96476562 337.91796875 284.83203125 C338.79066406 285.71246094 339.66335938 286.59289062 340.5625 287.5 C341.45066406 288.38042969 342.33882812 289.26085937 343.25390625 290.16796875 C344.09308594 291.00972656 344.93226563 291.85148437 345.796875 292.71875 C346.56741211 293.49154297 347.33794922 294.26433594 348.13183594 295.06054688 C349.8125 297 349.8125 297 349.8125 299 C350.8025 299.33 351.7925 299.66 352.8125 300 C354.25 301.390625 354.25 301.390625 355.8125 303.25 C356.42867187 303.97832031 357.04484375 304.70664062 357.6796875 305.45703125 C358.38351562 306.29621094 359.08734375 307.13539063 359.8125 308 C360.61945313 308.93199219 361.42640625 309.86398437 362.2578125 310.82421875 C393.08473526 346.51614047 419.00873701 388.06722693 433.8125 433 C434.03534668 433.66741211 434.25819336 434.33482422 434.48779297 435.02246094 C442.78279333 459.99888376 446.99373627 484.9251249 447.05273438 511.23828125 C447.062559 513.89093025 447.09373698 516.54284035 447.125 519.1953125 C447.13152146 520.89843298 447.13677528 522.60155889 447.140625 524.3046875 C447.1591452 525.48138504 447.1591452 525.48138504 447.17803955 526.68185425 C447.15300074 532.8693807 445.59663184 536.86895364 441.5625 541.6875 C437.44827296 545.14719092 433.70497044 546.75914013 428.375 547.4375 C422.51623205 546.71800218 417.86577462 544.53380082 413.9375 540.0625 C410.38432161 534.9417429 409.48514463 530.54779925 409.13671875 524.40234375 C409.03379425 522.87739034 408.93008306 521.35248986 408.82568359 519.82763672 C408.77337585 519.03033142 408.72106812 518.23302612 408.66717529 517.41156006 C406.84545803 490.45160774 402.40605958 465.39268982 392.8125 440 C392.41901367 438.95827637 392.02552734 437.91655273 391.62011719 436.84326172 C377.3942253 399.83143554 355.47725854 364.94600448 328.5 335.90625 C326.06980486 333.27824828 323.68620804 330.61639908 321.3125 327.9375 C313.21823836 318.93100494 304.6316496 310.39188573 295.125 302.875 C292.8125 301 292.8125 301 290.53125 298.6953125 C285.58992304 293.79658318 280.15883995 289.44578672 274.8125 285 C274.18875488 284.47809082 273.56500977 283.95618164 272.92236328 283.41845703 C263.47929479 275.53280986 253.7522834 268.23043875 243.62207031 261.25146484 C241.33548364 259.67010444 239.07554072 258.0523138 236.8125 256.4375 C223.72828983 247.3135608 210.07569274 239.0047511 196.5390625 230.578125 C191.81748746 227.6355491 187.11953145 224.65759252 182.42919922 221.66552734 C179.99462775 220.11592419 177.55395012 218.57672827 175.109375 217.04296875 C165.23703181 210.84723707 155.4610673 204.53846269 145.8125 198 C144.96751953 197.42846191 144.12253906 196.85692383 143.25195312 196.26806641 C113.36486722 176.03575367 113.36486722 176.03575367 102.421875 167.11328125 C100.48793884 165.54702457 98.54412232 164.00543575 96.578125 162.48046875 C89.92054747 157.31421857 83.40010268 152.0358656 77.04589844 146.49902344 C76.52157227 146.04301758 75.99724609 145.58701172 75.45703125 145.1171875 C74.60407471 144.37505005 74.60407471 144.37505005 73.73388672 143.61791992 C72.37915897 142.47715997 70.99757998 141.36792036 69.59814453 140.2824707 C60.57103301 133.21056801 52.6260237 125.08058 44.55908203 116.95239258 C42.05947426 114.43445207 39.55188039 111.9246824 37.04296875 109.41601562 C35.42921415 107.79734678 33.81591699 106.17822171 32.203125 104.55859375 C31.46443176 103.81878769 30.72573853 103.07898163 29.96466064 102.3167572 C16.74096942 88.97335395 4.62546587 74.24819434 -5.98876953 58.74902344 C-6.81002846 57.55075481 -7.63681517 56.35626137 -8.46826172 55.16503906 C-26.42462263 29.43272327 -26.42462263 29.43272327 -25.1875 13 C-23.47291465 6.84766432 -20.23350995 3.62339992 -15.1875 0 C-10.64304833 -2.27222584 -4.69847138 -1.47403024 0 0 Z " fill="#010101" transform="translate(669.1875,124)"/>
<path d="M0 0 C4.23555014 3.38844012 7.52282715 6.73511303 8.15625 12.234375 C8.58601218 22.59164362 6.21032683 29.29756216 0.8125 38.25 C-0.030976 39.71164678 -0.87337463 41.17391569 -1.71484375 42.63671875 C-7.11230569 51.86704696 -13.08288457 60.33783669 -19.85546875 68.59863281 C-21.62386757 70.79098062 -23.31409872 73.03793215 -25.00756836 75.28833008 C-29.43023152 81.1588527 -34.13144368 86.64907918 -39.15625 92.0078125 C-41.31124961 94.27579492 -41.31124961 94.27579492 -43.1875 97.25 C-43.8475 97.25 -44.5075 97.25 -45.1875 97.25 C-45.45175781 97.84296875 -45.71601562 98.4359375 -45.98828125 99.046875 C-47.23120425 101.33029054 -48.49151646 102.72426723 -50.375 104.5 C-52.98345476 107.02186705 -55.40169693 109.60922082 -57.75 112.375 C-60.66380938 115.75814781 -63.71242501 118.45483099 -67.1875 121.25 C-68.867906 122.90281313 -70.533206 124.57105184 -72.1875 126.25 C-77.34239241 131.48057598 -82.48765272 136.63853426 -88.0703125 141.4140625 C-90.59349455 143.6020617 -93.04304519 145.86293113 -95.5 148.125 C-100.90243316 153.04507305 -106.47664757 157.69355013 -112.1875 162.25 C-112.95006104 162.86198242 -112.95006104 162.86198242 -113.72802734 163.48632812 C-141.34607756 185.62132096 -170.87180237 204.9349712 -200.80664062 223.75292969 C-207.94155894 228.23932418 -215.06794776 232.73926328 -222.1875 237.25 C-223.10426514 237.83080322 -223.10426514 237.83080322 -224.03955078 238.42333984 C-233.54548604 244.45829561 -242.9114712 250.69817209 -252.265625 256.96484375 C-255.05478228 258.83218771 -257.84859422 260.68857426 -260.671875 262.50390625 C-268.37425456 267.48963572 -275.4358153 273.12959842 -282.53955078 278.91796875 C-284.60313526 280.58595644 -286.70338805 282.20260904 -288.8125 283.8125 C-297.56534271 290.57982073 -305.91155308 297.9122171 -314.1875 305.25 C-314.90679687 305.87648438 -315.62609375 306.50296875 -316.3671875 307.1484375 C-326.90978998 316.44666723 -337.24977164 326.37978983 -346.1875 337.25 C-346.86683594 338.06339844 -347.54617188 338.87679688 -348.24609375 339.71484375 C-350.58512875 342.54033317 -352.89148632 345.3894549 -355.1875 348.25 C-355.94804687 349.19230469 -356.70859375 350.13460938 -357.4921875 351.10546875 C-364.76723461 360.32450386 -371.18487027 370.0791697 -377.62646484 379.89160156 C-378.93466599 381.86802056 -380.26167781 383.82661653 -381.61328125 385.7734375 C-386.16560904 392.36768319 -389.8216693 399.15764455 -393.28125 406.38183594 C-394.21706816 408.31095248 -395.18180432 410.22293704 -396.15625 412.1328125 C-398.20692609 416.15253343 -400.21428679 420.19169546 -402.1875 424.25 C-402.49187988 424.87567871 -402.79625977 425.50135742 -403.10986328 426.14599609 C-411.4401788 443.53001335 -416.61085861 462.34977911 -420.1875 481.25 C-420.3210791 481.94851074 -420.4546582 482.64702148 -420.59228516 483.36669922 C-422.11635943 491.56212203 -423.17873475 499.75756305 -423.8984375 508.0625 C-423.95928024 508.74995804 -424.02012299 509.43741608 -424.08280945 510.14570618 C-424.38597852 513.59217673 -424.67010814 517.03842166 -424.92211914 520.48901367 C-425.60791707 528.67362692 -426.40238338 534.97857289 -432.01171875 541.30859375 C-436.91892502 544.94013214 -441.01826705 546.6801676 -447.1875 546.25 C-453.4620423 545.24233344 -457.17517164 542.93228259 -461.09375 537.96875 C-463.60913633 534.01600005 -463.34866669 530.00327342 -463.35546875 525.49609375 C-463.35879715 524.72177505 -463.36212555 523.94745636 -463.36555481 523.14967346 C-463.37062305 521.5012369 -463.37296317 519.85279005 -463.37280273 518.2043457 C-463.37494659 515.74867262 -463.39298135 513.29348157 -463.41210938 510.83789062 C-463.56251809 469.0751056 -451.09408309 426.82723961 -431.1875 390.25 C-430.71296387 389.3734375 -430.23842773 388.496875 -429.74951172 387.59375 C-423.28446923 375.72403682 -416.5427345 364.2051062 -408.625 353.24511719 C-407.06736615 351.08326532 -405.53326707 348.90575518 -404 346.7265625 C-398.23167041 338.57610746 -392.27616293 330.71779996 -385.72265625 323.18359375 C-383.37097772 320.46231398 -381.11695777 317.68673709 -378.875 314.875 C-369.4278966 303.32670197 -358.83631311 292.80613208 -348.3125 282.25 C-347.82054138 281.75536255 -347.32858276 281.2607251 -346.82171631 280.75109863 C-341.12589763 275.03175235 -335.36999035 269.44551696 -329.1875 264.25 C-328.52717773 263.6936084 -327.86685547 263.1372168 -327.18652344 262.56396484 C-318.02666842 254.90008806 -308.74761072 247.40991271 -299.1875 240.25 C-298.11628906 239.445625 -298.11628906 239.445625 -297.0234375 238.625 C-286.62125461 230.83206031 -276.10417292 223.30497203 -265.1875 216.25 C-264.61757324 215.88100586 -264.04764648 215.51201172 -263.46044922 215.13183594 C-260.58528368 213.272928 -257.70475611 211.42259915 -254.8203125 209.578125 C-251.62904777 207.53641122 -248.44935271 205.47728031 -245.27148438 203.41479492 C-233.32835418 195.66491229 -221.30919169 188.03461845 -209.28588867 180.40991211 C-204.57736463 177.42051818 -199.88149321 174.4205652 -195.25 171.3125 C-192.29171776 169.32893383 -189.33362692 167.34627423 -186.359375 165.38671875 C-171.86766389 155.82456511 -157.92341526 145.67037615 -144.29931641 134.91210938 C-142.30500675 133.34248393 -140.3013855 131.78588853 -138.29296875 130.234375 C-132.11964387 125.45425824 -126.14751501 120.56562769 -120.39453125 115.27734375 C-118.45920715 113.49958586 -116.49346984 111.77423748 -114.5 110.0625 C-104.26302278 101.10008714 -94.48089228 91.65377881 -84.82937622 82.06811523 C-83.83465876 81.08078236 -82.83835308 80.09504644 -81.84030151 79.11108398 C-75.89846235 73.24546572 -70.35380614 67.23864938 -65.16796875 60.69189453 C-63.22477808 58.29596343 -61.18390825 56.05086347 -59.0625 53.8125 C-49.20972895 42.96241531 -40.73984149 30.7818864 -32.6875 18.5625 C-29.77380596 14.1608713 -29.77380596 14.1608713 -28.41113281 12.10302734 C-27.34951552 10.49535071 -26.2951887 8.88286442 -25.2421875 7.26953125 C-19.0959151 -1.49248034 -9.91525287 -5.44366824 0 0 Z " fill="#010101" transform="translate(601.1875,124.75)"/>
<path d="M0 0 C2.44140625 0.046875 2.44140625 0.046875 5 1 C6.58984375 3.265625 6.58984375 3.265625 7.9375 6.25 C8.44410156 7.343125 8.95070313 8.43625 9.47265625 9.5625 C9.97667969 10.696875 10.48070312 11.83125 11 13 C12.4552117 16.17212359 13.91728921 19.3396488 15.40625 22.49609375 C16.55567085 25.02312929 17.59569638 27.51392686 18.59375 30.09765625 C22.10814809 38.70813103 25.52349226 43.49038816 34.14086914 47.25585938 C35.59877843 47.85380451 37.06211216 48.43864461 38.52978516 49.01220703 C42.35083294 50.54017297 46.08454873 52.25323681 49.82958984 53.95751953 C51.7890036 54.84757898 53.75408622 55.72528256 55.72509766 56.58935547 C56.62663574 56.98912598 57.52817383 57.38889648 58.45703125 57.80078125 C59.26116455 58.15309814 60.06529785 58.50541504 60.89379883 58.8684082 C63.12485768 60.06708187 64.55799703 60.90612013 66 63 C65.90700382 66.01678444 65.54289282 67.46292272 63.38183594 69.60083008 C56.94759479 73.66429183 50.25622225 76.73729452 43.25 79.6875 C41.04557309 80.62585361 38.84239827 81.56715537 36.640625 82.51171875 C35.67672852 82.91865967 34.71283203 83.32560059 33.71972656 83.74487305 C30.94393035 84.96379201 30.94393035 84.96379201 28.27246094 86.65551758 C26 88 26 88 24 88 C23.71930664 88.71534912 23.43861328 89.43069824 23.14941406 90.16772461 C22.03318716 92.91822339 20.84199517 95.6162549 19.609375 98.31640625 C19.15006592 99.3230835 18.69075684 100.32976074 18.2175293 101.36694336 C16.25683788 105.63636441 14.28270215 109.89948685 12.30517578 114.16113281 C11.22921734 116.50143299 10.1815092 118.84987582 9.15234375 121.2109375 C8.66894531 122.27570313 8.18554688 123.34046875 7.6875 124.4375 C7.29949219 125.32308594 6.91148437 126.20867187 6.51171875 127.12109375 C5 129 5 129 1.83203125 129.78515625 C0.89746094 129.85605469 -0.03710938 129.92695312 -1 130 C-3.83819832 126.69075617 -5.707579 123.75649869 -7.25 119.6875 C-10.37477943 111.8851958 -14.10989377 104.44276251 -18 97 C-18.4434375 96.13503906 -18.886875 95.27007813 -19.34375 94.37890625 C-24.28061549 85.55592704 -34.15390751 82.40848393 -43 78.5 C-58.64919314 71.58569066 -58.64919314 71.58569066 -63 68 C-64 65.1875 -64 65.1875 -64 63 C-57.62463804 58.77527035 -51.04516785 55.59858598 -44.0625 52.5 C-24.36724026 43.72743889 -18.17683876 36.49827651 -9.55102539 16.88110352 C-3.79645305 3.79645305 -3.79645305 3.79645305 0 0 Z " fill="#010101" transform="translate(625,628)"/>
<path d="M0 0 C4.08377959 0.76434898 6.11603131 2.84287016 8.87133789 5.75439453 C9.39318161 6.28235626 9.91502533 6.81031799 10.4526825 7.35427856 C12.11070595 9.03917695 13.74643464 10.74404041 15.38305664 12.44970703 C16.5021623 13.5903433 17.62259203 14.7296821 18.74438477 15.86767578 C27.84324479 25.15400797 27.84324479 25.15400797 28.57055664 29.69970703 C27.83993267 35.36204279 25.03889209 37.64398613 21.07055664 41.57470703 C19.92271286 42.73416244 18.77564047 43.89438179 17.62915039 45.05517578 C14.63368586 48.07615869 11.62286649 51.08069425 8.58862305 54.06274414 C7.30866711 55.3375539 6.06587728 56.64952107 4.83227539 57.96923828 C3.07055664 59.57470703 3.07055664 59.57470703 0.07055664 60.01220703 C-3.18620137 59.53726315 -4.61888199 58.8852684 -6.92944336 56.57470703 C-6.92944336 55.91470703 -6.92944336 55.25470703 -6.92944336 54.57470703 C-8.41444336 54.07970703 -8.41444336 54.07970703 -9.92944336 53.57470703 C-11.36694336 52.11376953 -11.36694336 52.11376953 -12.92944336 50.19970703 C-16.84246235 45.53095476 -21.21636782 41.42527585 -25.67163086 37.28564453 C-28.214634 34.2322809 -28.79428766 32.51044092 -28.92944336 28.57470703 C-27.61694336 25.69970703 -27.61694336 25.69970703 -25.92944336 23.57470703 C-25.26944336 23.57470703 -24.60944336 23.57470703 -23.92944336 23.57470703 C-23.68484375 23.00848633 -23.44024414 22.44226563 -23.18823242 21.85888672 C-20.60694305 17.17491788 -16.41238974 13.60229253 -12.67944336 9.82470703 C-11.8325293 8.93654297 -10.98561523 8.04837891 -10.11303711 7.13330078 C-9.28416992 6.29412109 -8.45530273 5.45494141 -7.60131836 4.59033203 C-6.84947266 3.81979492 -6.09762695 3.04925781 -5.32299805 2.25537109 C-2.92944336 0.57470703 -2.92944336 0.57470703 0 0 Z " fill="#010101" transform="translate(1099.929443359375,714.42529296875)"/>
<path d="M0 0 C4.38463921 1.71162088 7.07849304 4.13701692 9.14453125 8.390625 C9.93195556 10.35963961 9.93195556 10.35963961 11.9296875 11.0859375 C15.14704841 12.75592882 16.96606015 15.30188476 19.26171875 18.0546875 C21.03014383 20.19861176 21.03014383 20.19861176 22.90234375 22.0390625 C23.45664063 22.60882812 24.0109375 23.17859375 24.58203125 23.765625 C25.08734375 24.26191406 25.59265625 24.75820313 26.11328125 25.26953125 C27.75468619 28.54572255 27.04570914 30.74565472 26.08203125 34.203125 C24.38303498 36.56461627 22.36354087 38.44875626 20.20703125 40.390625 C16.01382689 44.2442089 16.01382689 44.2442089 12.32421875 48.56640625 C11.91429687 49.10652344 11.504375 49.64664063 11.08203125 50.203125 C10.42203125 50.203125 9.76203125 50.203125 9.08203125 50.203125 C8.85515625 50.76 8.62828125 51.316875 8.39453125 51.890625 C6.65407598 54.95714143 4.81412361 56.9677767 2.08203125 59.203125 C-0.73046875 59.953125 -0.73046875 59.953125 -3.91796875 59.203125 C-6.85142338 57.1300734 -9.36903612 54.72588789 -11.91796875 52.203125 C-12.45292969 51.70554687 -12.98789063 51.20796875 -13.5390625 50.6953125 C-14.71562655 49.58207626 -15.82500971 48.39854895 -16.91796875 47.203125 C-16.91796875 46.543125 -16.91796875 45.883125 -16.91796875 45.203125 C-17.90796875 44.873125 -18.89796875 44.543125 -19.91796875 44.203125 C-24.69069602 39.88494318 -24.69069602 39.88494318 -25.91796875 36.203125 C-26.90796875 35.873125 -27.89796875 35.543125 -28.91796875 35.203125 C-30.42686344 32.18533563 -30.41823151 30.57989863 -29.91796875 27.203125 C-28.671875 25.47729492 -28.671875 25.47729492 -26.98046875 23.62109375 C-26.34431641 22.92081055 -25.70816406 22.22052734 -25.05273438 21.49902344 C-24.34826172 20.74137695 -23.64378906 19.98373047 -22.91796875 19.203125 C-22.17740234 18.39649414 -21.43683594 17.58986328 -20.67382812 16.75878906 C-18.28546891 14.1887716 -15.85701761 11.66251675 -13.41796875 9.140625 C-12.60199219 8.26212891 -11.78601563 7.38363281 -10.9453125 6.47851562 C-4.88044751 0.2530242 -4.88044751 0.2530242 0 0 Z " fill="#010101" transform="translate(154.91796875,714.796875)"/>
<path d="M0 0 C1.11117187 -0.02449219 2.22234375 -0.04898438 3.3671875 -0.07421875 C10.0301475 -0.09801504 14.24380579 0.33910434 19.625 4.375 C23.69765448 8.98353007 24.71966479 13.36904481 24.625 19.375 C22.89485449 28.49758544 18.00861842 34.33708026 11.84375 40.9453125 C9.58044338 43.36140417 9.58044338 43.36140417 7.53125 46.0546875 C5.04087057 49.08601001 3.30056466 50.24253634 -0.5625 51 C-6.35170694 50.05094968 -8.70683872 46.75714267 -12.375 42.375 C-12.7978125 41.87145996 -13.220625 41.36791992 -13.65625 40.84912109 C-19.58800353 33.7038584 -24.74640257 27.3466756 -25.75 17.8125 C-25.02228093 11.14174182 -22.51090649 6.65492207 -17.375 2.375 C-11.71496664 -0.36218015 -6.16920179 0.00710738 0 0 Z " fill="#010101" transform="translate(627.375,57.625)"/>
<path d="" fill="#FFFFFF" transform="translate(0,0)"/>
<path d="" fill="#808080" transform="translate(0,0)"/>
<path d="" fill="#555555" transform="translate(0,0)"/>
<path d="" fill="#555555" transform="translate(0,0)"/>
</svg>
